<?xml version="1.0" encoding="UTF-8"?>
<svg version="1.1" xmlns="http://www.w3.org/2000/svg" width="256" height="256">
<path d="M0 0 C0.77969853 -0.00367669 1.55939706 -0.00735338 2.36272281 -0.01114148 C4.97798216 -0.02216311 7.59320175 -0.02601961 10.20848083 -0.02983093 C12.08282599 -0.03609684 13.9571699 -0.04274375 15.83151245 -0.04974365 C21.99028154 -0.07077503 28.14905085 -0.08114662 34.30784607 -0.09111023 C36.42992096 -0.09515842 38.55199573 -0.09927536 40.67407036 -0.10346031 C50.64639915 -0.1225116 60.61872055 -0.13674159 70.59106404 -0.14507228 C82.09127396 -0.15483852 93.59129109 -0.18114236 105.09143311 -0.22157317 C113.98673048 -0.25176957 122.88197271 -0.26654459 131.77732033 -0.26985329 C137.08681827 -0.27220015 142.39611023 -0.28111305 147.70555305 -0.30631447 C152.70508599 -0.32966117 157.7042783 -0.33380189 162.7038517 -0.32355309 C164.53272385 -0.32305918 166.36161314 -0.32933637 168.1904335 -0.34310913 C183.13186109 -0.44928047 194.10858566 1.36500216 205.30393982 12.14717102 C212.75238812 20.41254591 216.45391662 28.76533502 216.45111084 39.8432312 C216.45478753 40.62292973 216.45846422 41.40262826 216.46225232 42.20595402 C216.47327395 44.82121336 216.47713045 47.43643295 216.48094177 50.05171204 C216.48720768 51.92605719 216.49385459 53.8004011 216.50085449 55.67474365 C216.52188587 61.83351274 216.53225746 67.99228205 216.54222107 74.15107727 C216.54626926 76.27315217 216.5503862 78.39522693 216.55457115 80.51730156 C216.57362244 90.48963035 216.58785243 100.46195175 216.59618312 110.43429524 C216.60594936 121.93450516 216.6322532 133.43452229 216.67268401 144.93466431 C216.70288041 153.82996168 216.71765543 162.72520391 216.72096413 171.62055153 C216.72331099 176.93004947 216.73222389 182.23934143 216.75742531 187.54878426 C216.78077201 192.54831719 216.78491273 197.5475095 216.77466393 202.5470829 C216.77417002 204.37595505 216.78044721 206.20484435 216.79421997 208.0336647 C216.90039131 222.97509229 215.08610868 233.95181686 204.30393982 245.14717102 C196.03856493 252.59561932 187.68577582 256.29714782 176.60787964 256.29434204 C175.82818111 256.29801873 175.04848258 256.30169542 174.24515682 256.30548352 C171.62989748 256.31650515 169.01467789 256.32036165 166.3993988 256.32417297 C164.52505365 256.33043888 162.65070974 256.33708579 160.77636719 256.34408569 C154.6175981 256.36511707 148.45882879 256.37548866 142.30003357 256.38545227 C140.17795867 256.38950046 138.05588391 256.39361741 135.93380928 256.39780235 C125.96148049 256.41685364 115.98915909 256.43108363 106.0168156 256.43941432 C94.51660568 256.44918056 83.01658855 256.4754844 71.51644653 256.51591522 C62.62114916 256.54611161 53.72590693 256.56088663 44.83055931 256.56419533 C39.52106137 256.5665422 34.21176941 256.57545509 28.90232658 256.60065651 C23.90279365 256.62400321 18.90360134 256.62814393 13.90402794 256.61789513 C12.07515579 256.61740123 10.24626649 256.62367841 8.41744614 256.63745117 C-6.52398145 256.74362251 -17.50070602 254.92933988 -28.69606018 244.14717102 C-36.14450848 235.88179614 -39.84603698 227.52900702 -39.8432312 216.45111084 C-39.84874623 215.28156305 -39.84874623 215.28156305 -39.85437268 214.08838803 C-39.86539431 211.47312868 -39.86925081 208.85790909 -39.87306213 206.24263 C-39.87932804 204.36828485 -39.88597495 202.49394094 -39.89297485 200.61959839 C-39.91400623 194.4608293 -39.92437782 188.30205999 -39.93434143 182.14326477 C-39.93838962 180.02118988 -39.94250657 177.89911511 -39.94669151 175.77704048 C-39.9657428 165.80471169 -39.97997279 155.83239029 -39.98830348 145.8600468 C-39.99806972 134.35983688 -40.02437356 122.85981975 -40.06480438 111.35967773 C-40.09500077 102.46438036 -40.10977579 93.56913813 -40.1130845 84.67379051 C-40.11543136 79.36429257 -40.12434425 74.05500061 -40.14954567 68.74555779 C-40.17289237 63.74602485 -40.17703309 58.74683254 -40.16678429 53.74725914 C-40.16629039 51.91838699 -40.17256757 50.0894977 -40.18634033 48.26067734 C-40.29251167 33.31924975 -38.47822904 22.34252518 -27.69606018 11.14717102 C-19.4306853 3.69872272 -11.07789618 -0.00280578 0 0 Z " fill="#FCFBFC" transform="translate(39.69606018066406,-0.1471710205078125)"/>
<path d="M0 0 C1.29524597 -0.01283524 2.59049194 -0.02567047 3.92498779 -0.03889465 C5.33703222 -0.04706359 6.749081 -0.05450703 8.16113281 -0.0612793 C8.87562843 -0.06535482 9.59012405 -0.06943035 10.32627106 -0.07362938 C14.10911262 -0.09445723 17.89191827 -0.10877237 21.67480469 -0.11816406 C25.56628235 -0.12921421 29.45718598 -0.16360667 33.34846115 -0.20333576 C36.35464483 -0.22957934 39.36069337 -0.23786275 42.36698151 -0.24144554 C43.80060955 -0.24629254 45.23423233 -0.25785238 46.6677475 -0.27648354 C54.71212562 -0.37452687 60.80585481 -0.34829725 67.61425781 4.17700195 C71.22055427 7.96823669 72.75115447 10.96974609 72.71191406 16.1887207 C72.70708008 17.32470703 72.70708008 17.32470703 72.70214844 18.48364258 C72.68958008 19.66216797 72.68958008 19.66216797 72.67675781 20.86450195 C72.67224609 21.66178711 72.66773437 22.45907227 72.66308594 23.28051758 C72.65131632 25.24604452 72.6333813 27.2115328 72.61425781 29.17700195 C68.98425781 29.17700195 65.35425781 29.17700195 61.61425781 29.17700195 C61.55818359 27.58758789 61.55818359 27.58758789 61.50097656 25.96606445 C61.43532523 24.57800771 61.3688776 23.18998847 61.30175781 21.80200195 C61.27919922 21.10333008 61.25664063 20.4046582 61.23339844 19.68481445 C61.14441485 17.40411254 61.14441485 17.40411254 60.61425781 14.17700195 C57.10264283 11.8359253 55.67629177 11.92418663 51.5222168 11.91821289 C49.6402787 11.90875641 49.6402787 11.90875641 47.72032166 11.89910889 C46.3503302 11.90268829 44.98034002 11.90679016 43.61035156 11.91137695 C42.20695427 11.91002981 40.80355744 11.90808886 39.40016174 11.90557861 C36.46049552 11.90263064 33.52095091 11.90691507 30.58129883 11.91625977 C26.80930901 11.92766473 23.03760348 11.92108635 19.26562405 11.90911484 C16.36861519 11.90189632 13.47167403 11.90418392 10.57466316 11.90937042 C9.18356353 11.91070641 7.79245779 11.90906098 6.40136528 11.90441132 C4.45987944 11.89934537 2.51837211 11.90843271 0.5769043 11.91821289 C-1.0816433 11.92059967 -1.0816433 11.92059967 -2.7736969 11.92303467 C-5.54565005 11.91333703 -5.54565005 11.91333703 -7.38574219 14.17700195 C-7.69312134 16.90746699 -7.69312134 16.90746699 -7.64453125 20.13964844 C-7.65083557 21.39112167 -7.65713989 22.64259491 -7.66363525 23.93199158 C-7.66005518 25.30402771 -7.65595315 26.67606256 -7.65136719 28.0480957 C-7.65271405 29.4505266 -7.65465476 30.85295705 -7.65716553 32.25538635 C-7.66011677 35.19683267 -7.65581989 38.13815762 -7.64648438 41.07958984 C-7.63510022 44.85038912 -7.64164255 48.62090339 -7.6536293 52.39169216 C-7.66085693 55.28874355 -7.65855566 58.18572741 -7.65337372 61.08278084 C-7.65203917 62.47305396 -7.65367814 63.8633332 -7.65833282 65.25359917 C-7.66341139 67.19738523 -7.65429842 69.14119278 -7.64453125 71.08496094 C-7.64294006 72.19145493 -7.64134888 73.29794891 -7.63970947 74.43797302 C-7.5845709 77.39389628 -7.5845709 77.39389628 -5.38574219 80.17700195 C-2.55705105 80.61711633 -2.55705105 80.61711633 0.80810547 80.51757812 C2.75990219 80.51723824 2.75990219 80.51723824 4.75112915 80.51689148 C6.176863 80.50157032 7.60259337 80.48592232 9.02832031 80.4699707 C10.48277347 80.46437639 11.93723228 80.46010551 13.39169312 80.45710754 C17.22232637 80.44564569 21.05261909 80.41616743 24.88311768 80.38299561 C28.79084669 80.35232333 32.69863066 80.33860832 36.60644531 80.32348633 C44.27588946 80.29129855 51.94498257 80.2385202 59.61425781 80.17700195 C59.94425781 74.56700195 60.27425781 68.95700195 60.61425781 63.17700195 C64.57425781 63.17700195 68.53425781 63.17700195 72.61425781 63.17700195 C72.64120792 66.11456314 72.66107256 69.0518775 72.67675781 71.98950195 C72.68513672 72.82288086 72.69351563 73.65625977 72.70214844 74.51489258 C72.70537109 75.31733398 72.70859375 76.11977539 72.71191406 76.9465332 C72.71715088 77.68492432 72.7223877 78.42331543 72.7277832 79.18408203 C72.61425781 81.17700195 72.61425781 81.17700195 71.61425781 84.17700195 C70.95425781 84.17700195 70.29425781 84.17700195 69.61425781 84.17700195 C69.34613281 84.81637695 69.07800781 85.45575195 68.80175781 86.11450195 C67.61425781 88.17700195 67.61425781 88.17700195 64.61425781 89.17700195 C64.11925781 90.66200195 64.11925781 90.66200195 63.61425781 92.17700195 C60.25128818 93.29799183 57.67190968 93.32450922 54.12670898 93.35400391 C53.47266586 93.3605751 52.81862274 93.3671463 52.14476013 93.37391663 C49.98224771 93.3936121 47.81980461 93.40530377 45.65722656 93.4152832 C44.91725245 93.41935873 44.17727833 93.42343426 43.41488075 93.42763329 C39.49818833 93.44847805 35.58153078 93.46278662 31.66479492 93.47216797 C27.62625009 93.48322914 23.58825673 93.51762954 19.54990673 93.55733967 C16.43828835 93.58352483 13.32680103 93.59186145 10.21508217 93.59544945 C8.72677193 93.60031055 7.23846736 93.61191108 5.75026512 93.63048744 C3.66306608 93.65492135 1.57728947 93.65390731 -0.51000977 93.64697266 C-2.28847038 93.65577202 -2.28847038 93.65577202 -4.1028595 93.66474915 C-9.61361425 92.84600068 -13.88881571 89.42326981 -17.38574219 85.17700195 C-19.11172643 80.87584556 -19.63797247 77.25786849 -19.64453125 72.64013672 C-19.65083557 71.36183487 -19.65713989 70.08353302 -19.66363525 68.76649475 C-19.66005474 67.38379782 -19.65595259 66.00110216 -19.65136719 64.6184082 C-19.6527162 63.1864363 -19.65465869 61.75446485 -19.65716553 60.32249451 C-19.66010665 57.327582 -19.65585249 54.33278917 -19.64648438 51.33789062 C-19.63510071 47.51379375 -19.64164872 43.68997799 -19.6536293 39.86589146 C-19.66088417 36.91035373 -19.65854321 33.95488176 -19.65337372 30.99934196 C-19.6520467 29.59004622 -19.65365146 28.18074436 -19.65833282 26.77145576 C-19.66345651 24.79539237 -19.65425273 22.81930784 -19.64453125 20.84326172 C-19.64294006 19.72218521 -19.64134888 18.6011087 -19.63970947 17.44606018 C-19.29447592 13.00222573 -18.65147215 8.74201782 -15.79980469 5.21606445 C-14.91421875 4.51610352 -14.91421875 4.51610352 -14.01074219 3.80200195 C-13.13289063 3.07883789 -13.13289063 3.07883789 -12.23730469 2.34106445 C-8.38394024 -0.08151488 -4.46200582 0.03854852 0 0 Z " fill="#212032" transform="translate(43.3857421875,139.822998046875)"/>
<path d="M0 0 C1.47298864 -0.00082993 2.94597717 -0.00329401 4.41896057 -0.00730896 C7.49809832 -0.01015882 10.57650542 0.00445121 13.65551758 0.03198242 C17.58405849 0.06603493 21.51129148 0.06004992 25.43989468 0.04131985 C28.47962664 0.03070237 31.5190593 0.03973083 34.5587635 0.05470467 C36.00629853 0.05985428 37.45386525 0.05944417 38.9013958 0.05315971 C55.13598725 0.00913225 55.13598725 0.00913225 61.48338318 6.11131287 C64.74113478 9.79993103 66.07558262 12.78344864 66.0390625 17.640625 C66.03422852 18.77661133 66.03422852 18.77661133 66.02929688 19.93554688 C66.01672852 21.11407227 66.01672852 21.11407227 66.00390625 22.31640625 C65.99939453 23.11369141 65.99488281 23.91097656 65.99023438 24.73242188 C65.97846475 26.69794882 65.96052973 28.6634371 65.94140625 30.62890625 C61.98140625 30.62890625 58.02140625 30.62890625 53.94140625 30.62890625 C53.88082031 29.48550781 53.82023437 28.34210937 53.7578125 27.1640625 C53.67342197 25.6731632 53.58877323 24.1822785 53.50390625 22.69140625 C53.46458984 21.93666016 53.42527344 21.18191406 53.38476562 20.40429688 C53.50102601 16.70946438 53.50102601 16.70946438 51.94140625 13.62890625 C49.95797425 13.52434805 47.97079384 13.4903502 45.98461914 13.48364258 C44.70982193 13.47726273 43.43502472 13.47088287 42.12159729 13.46430969 C40.71908608 13.46278114 39.31657436 13.46166711 37.9140625 13.4609375 C36.48538682 13.4577266 35.05671147 13.45436266 33.6280365 13.45085144 C30.6293766 13.44485386 27.63074555 13.44301218 24.63208008 13.44360352 C20.78382676 13.44370516 16.93575785 13.43005328 13.08754826 13.41283131 C10.13564703 13.40172919 7.18379063 13.39968375 4.23187065 13.40021324 C2.81285402 13.3990304 1.39383634 13.39459171 -0.02515984 13.38688087 C-2.00755324 13.37711771 -3.99000041 13.38121372 -5.97241211 13.38598633 C-7.10190781 13.38456131 -8.2314035 13.38313629 -9.39512634 13.38166809 C-12.21273826 13.35723529 -12.21273826 13.35723529 -14.05859375 15.62890625 C-14.3659729 18.35937129 -14.3659729 18.35937129 -14.31738281 21.59155273 C-14.32368713 22.84302597 -14.32999146 24.09449921 -14.33648682 25.38389587 C-14.33290675 26.75593201 -14.32880471 28.12796686 -14.32421875 29.5 C-14.32556562 30.9024309 -14.32750633 32.30486135 -14.33001709 33.70729065 C-14.33296833 36.64873696 -14.32867146 39.59006192 -14.31933594 42.53149414 C-14.30795178 46.30229342 -14.31449411 50.07280768 -14.32648087 53.84359646 C-14.33370849 56.74064785 -14.33140722 59.63763171 -14.32622528 62.53468513 C-14.32489073 63.92495825 -14.3265297 65.3152375 -14.33118439 66.70550346 C-14.33626296 68.64928953 -14.32714998 70.59309707 -14.31738281 72.53686523 C-14.31579163 73.64335922 -14.31420044 74.74985321 -14.31256104 75.88987732 C-14.25742246 78.84580058 -14.25742246 78.84580058 -12.05859375 81.62890625 C-9.33390505 82.08949923 -9.33390505 82.08949923 -6.09594727 82.01708984 C-4.84447403 82.02654633 -3.59300079 82.03600281 -2.30360413 82.04574585 C-0.93156621 82.04037574 0.44046882 82.03422269 1.8125 82.02734375 C3.21493176 82.02936405 4.61736249 82.03227512 6.01979065 82.03604126 C8.9612934 82.04046821 11.9025231 82.03402299 14.84399414 82.02001953 C18.61491654 82.00294274 22.3851977 82.01275627 26.15609646 82.03073692 C29.05317514 82.04157846 31.95010187 82.03812654 34.84718513 82.03035355 C36.23745868 82.02835172 37.62774601 82.03081022 39.01800346 82.03779221 C40.96178804 82.04541005 42.90562094 82.03174042 44.84936523 82.01708984 C45.95585922 82.01470306 47.06235321 82.01231628 48.20237732 82.00985718 C50.9402557 81.84390692 50.9402557 81.84390692 52.79017639 80.31436157 C54.68102634 77.54606722 54.47792099 74.73288487 54.62890625 71.44140625 C54.69464844 70.16910156 54.76039062 68.89679688 54.828125 67.5859375 C54.86550781 66.61011719 54.90289062 65.63429688 54.94140625 64.62890625 C58.57140625 64.62890625 62.20140625 64.62890625 65.94140625 64.62890625 C66.74662858 83.0595507 66.74662858 83.0595507 61.94140625 88.62890625 C56.83412683 92.69388375 53.07519541 93.75173358 46.65332031 93.79003906 C44.70549652 93.80445038 44.70549652 93.80445038 42.71832275 93.81915283 C41.29789404 93.82400173 39.87746329 93.82828033 38.45703125 93.83203125 C36.99835204 93.83778605 35.53967284 93.84354374 34.08099365 93.8493042 C31.02111459 93.85980809 27.96126174 93.86565432 24.90136719 93.86914062 C20.99305277 93.87461502 17.08508855 93.89862268 13.1768837 93.92711258 C10.16216036 93.94580095 7.14752019 93.95094791 4.13274384 93.9524765 C2.69272707 93.95549111 1.25271135 93.96347915 -0.18724823 93.97666168 C-15.74343259 94.10887493 -15.74343259 94.10887493 -21.99609375 89.06640625 C-23.05859375 87.62890625 -23.05859375 87.62890625 -23.05859375 85.62890625 C-23.71859375 85.62890625 -24.37859375 85.62890625 -25.05859375 85.62890625 C-26.17517328 82.27916765 -26.20599525 79.71967087 -26.2355957 76.18896484 C-26.2421669 75.5397406 -26.2487381 74.89051636 -26.25550842 74.22161865 C-26.27521192 72.07352574 -26.28690049 69.92550283 -26.296875 67.77734375 C-26.30298829 66.67299925 -26.30298829 66.67299925 -26.30922508 65.54634476 C-26.33007834 61.64564547 -26.34438039 57.74498123 -26.35375977 53.84423828 C-26.36479219 49.83288975 -26.39915676 45.82210084 -26.43893147 41.81094933 C-26.46519983 38.71207719 -26.47346083 35.61333599 -26.47704124 32.51436234 C-26.48188489 31.03690458 -26.4934349 29.55945179 -26.51207924 28.08210373 C-26.61876086 19.06464539 -26.57413182 11.31265092 -20.76544189 4.00120544 C-15.14111971 -1.17710955 -7.14855462 -0.07299925 0 0 Z " fill="#212032" transform="translate(50.05859375,22.37109375)"/>
<path d="M0 0 C1.31219009 -0.01929062 2.62438019 -0.03858124 3.97633362 -0.05845642 C5.41772473 -0.07326859 6.85912684 -0.08704123 8.30053711 -0.09985352 C9.02665129 -0.10642534 9.75276546 -0.11299717 10.5008831 -0.11976814 C14.34969 -0.15237894 18.19846917 -0.17681714 22.04736328 -0.19628906 C25.22225734 -0.21404991 28.39625438 -0.24878045 31.57080078 -0.29882812 C35.41171439 -0.35930631 39.25180121 -0.38980306 43.09316826 -0.39946175 C44.55114801 -0.40797683 46.00910806 -0.42669709 47.46681404 -0.45620537 C56.43177081 -0.62780565 62.9464661 -0.08739533 69.76538086 6.20874023 C70.76448486 7.00723389 71.76358887 7.80572754 72.79296875 8.62841797 C76.63218284 13.7350494 75.40999471 21.3975063 75.32397461 27.49389648 C75.31971989 28.99791554 75.31739542 30.50194119 75.31690979 32.00596619 C75.3107584 35.1507668 75.28812689 38.29485123 75.25244141 41.43945312 C75.20713095 45.46332689 75.19241236 49.48655388 75.18870449 53.51065922 C75.18426876 56.61370679 75.168953 59.71661971 75.14982796 62.81960869 C75.14097161 64.30311417 75.13422913 65.78663387 75.12966728 67.27015877 C75.12058898 69.34506302 75.09816931 71.41939321 75.07177734 73.49414062 C75.05581764 75.26235924 75.05581764 75.26235924 75.03953552 77.06629944 C74.76851012 80.17287178 74.0879494 82.4036341 72.76538086 85.20874023 C72.10538086 85.20874023 71.44538086 85.20874023 70.76538086 85.20874023 C70.49983398 85.82233398 70.23428711 86.43592773 69.96069336 87.06811523 C68.39746287 89.86762604 66.39866794 91.09791962 63.53881836 92.45874023 C57.47064543 94.09971094 50.99474417 93.48089688 44.76538086 93.20874023 C44.76538086 89.24874023 44.76538086 85.28874023 44.76538086 81.20874023 C45.82499023 81.1481543 46.88459961 81.08756836 47.97631836 81.02514648 C49.36435307 80.94073897 50.75237318 80.85609107 52.14038086 80.77124023 C52.83905273 80.73192383 53.53772461 80.69260742 54.25756836 80.65209961 C58.13898578 80.46593889 58.13898578 80.46593889 61.76538086 79.20874023 C61.8116671 70.89873232 61.84723105 62.58877802 61.8690052 54.27867317 C61.87945429 50.42019227 61.89363386 46.56179938 61.91625977 42.70336914 C61.93794826 38.98161831 61.949941 35.25995229 61.95513535 31.53814316 C61.95883831 30.11632832 61.96606905 28.69451826 61.97684097 27.27273941 C61.99130205 25.2854691 61.99219732 23.29811393 61.99243164 21.31079102 C61.99687286 20.17827911 62.00131409 19.04576721 62.00588989 17.87893677 C62.03905148 15.05519599 62.03905148 15.05519599 59.76538086 13.20874023 C56.97972182 12.90821362 56.97972182 12.90821362 53.67919922 12.96582031 C52.40124985 12.96274368 51.12330048 12.95966705 49.80662537 12.95649719 C48.40615662 12.96339442 47.00568966 12.97066135 45.60522461 12.97827148 C44.17558331 12.97946318 42.74594121 12.97991647 41.31629944 12.97966003 C38.31937767 12.98122515 35.32257532 12.98951763 32.32568359 13.00292969 C28.47628284 13.01993495 24.62701322 13.02374362 20.77757931 13.0229845 C17.82571654 13.02325586 14.87388267 13.02873125 11.9220295 13.03598595 C10.50219504 13.03917697 9.0823573 13.04114103 7.66251945 13.04187965 C5.68239038 13.04403774 3.70227342 13.05356692 1.72216797 13.06347656 C0.02911781 13.06919426 0.02911781 13.06919426 -1.69813538 13.07502747 C-4.17065204 12.9218057 -4.17065204 12.9218057 -5.23461914 14.20874023 C-5.47140631 16.90109799 -5.65659939 19.57372179 -5.79711914 22.27124023 C-5.84030273 23.02985352 -5.88348633 23.7884668 -5.92797852 24.57006836 C-6.03435547 26.44939461 -6.13501848 28.32904267 -6.23461914 30.20874023 C-10.19461914 30.20874023 -14.15461914 30.20874023 -18.23461914 30.20874023 C-18.31606857 27.49979257 -18.37532528 24.7933276 -18.42211914 22.08374023 C-18.44725586 21.32319336 -18.47239258 20.56264648 -18.49829102 19.77905273 C-18.57388739 13.93293324 -17.63310732 9.75680005 -13.48071289 5.34545898 C-12.88387695 4.8672168 -12.28704102 4.38897461 -11.67211914 3.89624023 C-11.07270508 3.40510742 -10.47329102 2.91397461 -9.85571289 2.40795898 C-6.53106743 -0.05147754 -4.09865574 0.05616207 0 0 Z " fill="#FF0E7A" transform="translate(158.234619140625,22.791259765625)"/>
<path d="M0 0 C17.74026197 -0.77505999 17.74026197 -0.77505999 25.61531067 5.23219299 C29.68793964 9.08724255 30.45666633 12.35951445 30.76049805 17.90991211 C30.81583098 20.70052473 30.7942221 23.486553 30.76171875 26.27734375 C30.76322334 27.77275397 30.7666587 29.26816337 30.77192688 30.76356506 C30.77624691 33.88989724 30.75951157 37.01519386 30.72729492 40.14135742 C30.68754741 44.13064497 30.69680833 48.11798819 30.72152996 52.107337 C30.73577627 55.19344255 30.7255763 58.27910113 30.70801735 61.36517525 C30.70220402 62.83503716 30.70341556 64.30494553 30.71204185 65.77479362 C30.76585774 79.52233313 30.76585774 79.52233313 26.45979309 85.59645081 C25 87 25 87 22.89335632 88.01011658 C20.64553972 88.90637859 20.64553972 88.90637859 20 92 C16.10553983 92.91028592 12.46449518 93.14259879 8.46899414 93.17700195 C7.16736832 93.18983719 5.86574249 93.20267242 4.52467346 93.21589661 C3.11150496 93.2240632 1.69833212 93.23150709 0.28515625 93.23828125 C-0.4309186 93.24235678 -1.14699345 93.2464323 -1.88476753 93.25063133 C-5.67179189 93.27143208 -9.45878062 93.28576211 -13.24584961 93.29516602 C-17.14758213 93.30624557 -21.04874677 93.34067965 -24.95027828 93.38033772 C-27.96066829 93.40652074 -30.97092285 93.41485907 -33.9814167 93.41844749 C-35.41948871 93.42330554 -36.85755498 93.43489734 -38.29551506 93.45348549 C-40.31006925 93.47791847 -42.32490233 93.47448805 -44.33959961 93.4699707 C-45.48367783 93.47583694 -46.62775604 93.48170319 -47.8065033 93.48774719 C-52.79670832 92.72558624 -55.88494908 90.20797184 -59.25 86.5625 C-62.81822818 81.33759445 -63.26976836 76.91810763 -63.125 70.6875 C-63.11597656 69.94693359 -63.10695312 69.20636719 -63.09765625 68.44335938 C-63.07424213 66.62876533 -63.03837615 64.81433929 -63 63 C-59.04 63 -55.08 63 -51 63 C-50.93941406 64.05960937 -50.87882813 65.11921875 -50.81640625 66.2109375 C-50.73199873 67.59897221 -50.64735083 68.98699232 -50.5625 70.375 C-50.52318359 71.07367188 -50.48386719 71.77234375 -50.44335938 72.4921875 C-50.25719866 76.37360492 -50.25719866 76.37360492 -49 80 C-40.68999208 80.04628625 -32.38003779 80.0818502 -24.06993294 80.10362434 C-20.21145203 80.11407343 -16.35305915 80.128253 -12.49462891 80.15087891 C-8.77287808 80.1725674 -5.05121206 80.18456014 -1.32940292 80.18975449 C0.09241191 80.19345745 1.51422197 80.20068819 2.93600082 80.21146011 C4.92327114 80.22592119 6.91062631 80.22681646 8.89794922 80.22705078 C10.03046112 80.231492 11.16297302 80.23593323 12.32980347 80.24050903 C15.15354424 80.27367062 15.15354424 80.27367062 17 78 C17.30051796 75.22148247 17.30051796 75.22148247 17.24291992 71.9296875 C17.24599655 70.65496582 17.24907318 69.38024414 17.25224304 68.06689453 C17.24534508 66.66959453 17.2380781 65.27229631 17.23046875 63.875 C17.22927694 62.44775433 17.22882379 61.02050786 17.2290802 59.59326172 C17.22751492 56.60053606 17.21922206 53.60792996 17.20581055 50.61523438 C17.18882062 46.7749001 17.18499619 42.93469729 17.18575573 39.09432983 C17.18548408 36.1467157 17.18000362 33.19913043 17.17275429 30.25152588 C17.16956723 28.83530903 17.16760013 27.4190889 17.16686058 26.00286865 C17.16469745 24.02533801 17.15516089 22.04781955 17.14526367 20.0703125 C17.14145187 18.94383301 17.13764008 17.81735352 17.13371277 16.65673828 C17.17953917 14.02433757 17.17953917 14.02433757 16 12 C13.28553021 11.68758545 10.66090639 11.48663408 7.9375 11.375 C6.79958008 11.31699219 6.79958008 11.31699219 5.63867188 11.2578125 C3.75952805 11.16326438 1.87979664 11.08053244 0 11 C0 7.37 0 3.74 0 0 Z " fill="#262536" transform="translate(203,140)"/>
<path d="M0 0 C0.74507812 0.00451172 1.49015625 0.00902344 2.2578125 0.01367188 C4.0885764 0.02540754 5.91929873 0.0433415 7.75 0.0625 C7.75 3.6925 7.75 7.3225 7.75 11.0625 C2.8 11.3925 -2.15 11.7225 -7.25 12.0625 C-8.40570704 15.52962111 -8.57835293 18.6039956 -8.8125 22.25 C-8.89628906 23.52230469 -8.98007813 24.79460937 -9.06640625 26.10546875 C-9.12699219 27.08128906 -9.18757812 28.05710938 -9.25 29.0625 C-13.21 29.0625 -17.17 29.0625 -21.25 29.0625 C-21.33144943 26.35355233 -21.39070614 23.64708737 -21.4375 20.9375 C-21.46263672 20.17695313 -21.48777344 19.41640625 -21.51367188 18.6328125 C-21.5871218 12.9526847 -20.69969822 8.81269454 -16.78515625 4.41796875 C-11.18215445 -0.0257913 -6.97798047 -0.08013582 0 0 Z " fill="#252435" transform="translate(161.25,139.9375)"/>
<path d="M0 0 C3.63 0 7.26 0 11 0 C11.04898438 0.96421875 11.09796875 1.9284375 11.1484375 2.921875 C11.22320312 4.18515625 11.29796875 5.4484375 11.375 6.75 C11.44460937 8.00296875 11.51421875 9.2559375 11.5859375 10.546875 C11.8295151 14.22160565 11.8295151 14.22160565 14 18 C18.95 18 23.9 18 29 18 C29 21.63 29 25.26 29 29 C26.29105233 29.08144943 23.58458737 29.14070614 20.875 29.1875 C20.11445313 29.21263672 19.35390625 29.23777344 18.5703125 29.26367188 C13.61978501 29.32768732 10.27029023 28.78109811 6 26 C4.35546875 24.28125 4.35546875 24.28125 3.1875 22.5 C2.78917969 21.9121875 2.39085937 21.324375 1.98046875 20.71875 C-0.40176376 16.54272488 -0.11525737 12.45920694 -0.0625 7.8125 C-0.05798828 7.06291016 -0.05347656 6.31332031 -0.04882812 5.54101562 C-0.03706354 3.69397617 -0.01912865 1.84697787 0 0 Z " fill="#FF0776" transform="translate(140,87)"/>
<path d="M0 0 C4.07451861 2.07430038 6.33623689 3.75507169 8 8 C8.31610992 12.45796035 7.589771 16.78915967 5.125 20.5625 C1.13662736 23.67343066 -1.44584055 23.800852 -6.40234375 23.52734375 C-11.05786836 22.58223725 -12.78903449 19.78761576 -15.3125 16.0625 C-16.630137 12.109589 -16.50482655 9.08537707 -14.75 5.3125 C-10.59620255 -0.17644663 -6.71625771 -1.05923648 0 0 Z " fill="#262536" transform="translate(190,134)"/>
<path d="M0 0 C3.899215 1.66410013 6.60571252 3.40856877 9 7 C9.1953125 9.48046875 9.1953125 9.48046875 9.125 12.1875 C9.10695312 13.08855469 9.08890625 13.98960937 9.0703125 14.91796875 C9.04710937 15.60503906 9.02390625 16.29210937 9 17 C8.34 17 7.68 17 7 17 C6.773125 17.598125 6.54625 18.19625 6.3125 18.8125 C4.59193332 21.68011113 3.03468112 22.62059949 0 24 C-3.45252804 24.431566 -5.47713606 24.21887328 -8.6875 22.875 C-12.64699561 19.66459816 -13.84782634 16.44564977 -14.375 11.4375 C-13.96627411 7.69084602 -13.35176439 5.91943166 -11 3 C-7.31751794 0.11373028 -4.6385183 -0.64939256 0 0 Z " fill="#242334" transform="translate(148,174)"/>
<path d="M0 0 C3.43827977 0.94703495 5.10726054 2.83169743 7.2265625 5.61328125 C8.72412631 10.10597269 8.91174638 13.93838733 7.1015625 18.36328125 C4.05485089 22.01933519 0.86872308 23.33958782 -3.7734375 24.11328125 C-7.90565684 23.42457803 -9.81667102 21.50284849 -12.7734375 18.61328125 C-15.44420385 14.60713173 -15.60131335 11.32389486 -14.7734375 6.61328125 C-10.37013759 1.01990028 -6.90003399 -0.93274075 0 0 Z " fill="#242334" transform="translate(113.7734375,174.38671875)"/>
<path d="M0 0 C0.90105469 0.01804687 1.80210937 0.03609375 2.73046875 0.0546875 C3.41753906 0.07789062 4.10460937 0.10109375 4.8125 0.125 C4.8125 0.785 4.8125 1.445 4.8125 2.125 C5.7096875 2.49625 5.7096875 2.49625 6.625 2.875 C9.34184654 4.42748374 10.42927567 5.28575005 11.8125 8.125 C12.13450626 13.03789556 11.51739058 16.2346119 8.4375 20.125 C4.2860512 23.28800861 0.94575916 23.64702636 -4.1875 23.125 C-7.64180827 21.09166854 -9.96645521 18.45656718 -12.1875 15.125 C-12.67442434 10.82383501 -12.46991006 8.64112874 -10.375 4.8125 C-7.08016099 0.76455492 -5.06846941 -0.13164856 0 0 Z " fill="#FE0B78" transform="translate(186.1875,98.875)"/>
<path d="M0 0 C3.899215 1.66410013 6.60571252 3.40856877 9 7 C9.1953125 9.48046875 9.1953125 9.48046875 9.125 12.1875 C9.10695312 13.08855469 9.08890625 13.98960938 9.0703125 14.91796875 C9.04710937 15.60503906 9.02390625 16.29210937 9 17 C8.34 17 7.68 17 7 17 C6.773125 17.598125 6.54625 18.19625 6.3125 18.8125 C4.59193332 21.68011113 3.03468112 22.62059949 0 24 C-3.26162485 24.63814399 -5.09041344 24.59393948 -7.90234375 22.7578125 C-12.73961268 18.78116197 -12.73961268 18.78116197 -14 15 C-14.36945059 10.01241703 -14.18227193 6.95040654 -11 3 C-7.31751794 0.11373028 -4.6385183 -0.64939256 0 0 Z " fill="#FE0A78" transform="translate(148,58)"/>
<path d="M0 0 C3.67291557 0.97300044 5.13789709 2.45684563 7.2265625 5.58984375 C8.45160799 9.81625068 8.72872318 13.26059489 7.1640625 17.40234375 C3.9896848 20.98631857 1.01611643 23.2090876 -3.7109375 24.21484375 C-8.11045739 23.31698255 -10.74069232 20.81474634 -13.7734375 17.58984375 C-15.51082761 14.11506354 -15.37024142 10.38053239 -14.7734375 6.58984375 C-10.38284594 1.01260582 -6.89275367 -0.9991125 0 0 Z " fill="#201F31" transform="translate(113.7734375,58.41015625)"/>
<path d="M0 0 C3.96 0 7.92 0 12 0 C12 1.98 12 3.96 12 6 C11.31292969 6.06058594 10.62585938 6.12117188 9.91796875 6.18359375 C8.56638672 6.30927734 8.56638672 6.30927734 7.1875 6.4375 C5.84751953 6.55931641 5.84751953 6.55931641 4.48046875 6.68359375 C1.87256441 6.93489767 1.87256441 6.93489767 -1 8 C-0.67 5.36 -0.34 2.72 0 0 Z " fill="#B2AFB6" transform="translate(122,67)"/>
<path d="M0 0 C3.96 0 7.92 0 12 0 C12 1.98 12 3.96 12 6 C8.04 6 4.08 6 0 6 C0 4.02 0 2.04 0 0 Z " fill="#ADACB3" transform="translate(122,183)"/>
<path d="M0 0 C1.98 0 3.96 0 6 0 C6 3.96 6 7.92 6 12 C4.02 12 2.04 12 0 12 C0 8.04 0 4.08 0 0 Z " fill="#B1AEB5" transform="translate(183,122)"/>
<path d="M0 0 C0.66 0.33 1.32 0.66 2 1 C1.030625 1.825 0.06125 2.65 -0.9375 3.5 C-4.61012754 7.1121372 -4.82612422 9.95760232 -5 15 C-5.33 15 -5.66 15 -6 15 C-6.78734859 6.96904441 -6.78734859 6.96904441 -3.5625 3 C-2.716875 2.34 -1.87125 1.68 -1 1 C-0.67 0.67 -0.34 0.34 0 0 Z " fill="#535360" transform="translate(105,59)"/>
</svg>
